<svg width="70" height="70" viewBox="0 0 70 70" fill="none" xmlns="http://www.w3.org/2000/svg">
<mask id="mask0_1_106" style="mask-type:alpha" maskUnits="userSpaceOnUse" x="0" y="0" width="70" height="70">
<rect width="70" height="70" rx="20" fill="#D8D8F8"/>
</mask>
<g mask="url(#mask0_1_106)">
<rect width="70" height="70" rx="20" fill="#D8D8F8"/>
<mask id="mask1_1_106" style="mask-type:alpha" maskUnits="userSpaceOnUse" x="12" y="23" width="46" height="54">
<rect x="12.25" y="23.625" width="45.5" height="52.5" rx="10" fill="#7F74EB"/>
</mask>
<g mask="url(#mask1_1_106)">
<rect x="12.25" y="23.625" width="45.5" height="52.5" rx="10" fill="#7F74EB"/>
<circle cx="35" cy="22.75" r="16.625" fill="#695FC8"/>
</g>
<path d="M21.4375 49.4375H41.125" stroke="white" stroke-width="3" stroke-linecap="round" stroke-linejoin="round"/>
<path opacity="0.6" d="M21.4375 56.4375H31.5" stroke="white" stroke-width="3" stroke-linecap="round" stroke-linejoin="round"/>
<circle cx="35" cy="21" r="12.25" fill="#3A3379"/>
</g>
<path d="M33.4857 14.1236C30.7434 14.7734 28.6503 17.1495 28.3662 20.0685H31.0315C31.1987 18.2413 32.0016 16.5162 32.7637 15.2376C33.0112 14.8223 33.2586 14.4474 33.4857 14.1236Z" fill="white"/>
<path d="M28.3662 21.4288C28.6503 24.3478 30.7434 26.7239 33.4857 27.3737C33.2586 27.0498 33.0112 26.6749 32.7637 26.2596C32.0016 24.9811 31.1987 23.2559 31.0315 21.4288H28.3662Z" fill="white"/>
<path d="M36.5142 27.3737C36.7414 27.0498 36.9887 26.6749 37.2362 26.2596C37.9983 24.9811 38.8013 23.2559 38.9684 21.4288H41.6337C41.3496 24.3478 39.2565 26.7239 36.5142 27.3737Z" fill="white"/>
<path d="M41.6337 20.0685H38.9684C38.8013 18.2413 37.9983 16.5162 37.2362 15.2376C36.9887 14.8223 36.7414 14.4474 36.5142 14.1236C39.2565 14.7734 41.3496 17.1495 41.6337 20.0685Z" fill="white"/>
<path d="M36.097 15.9444C36.7999 17.1235 37.464 18.5892 37.6281 20.0685H32.3718C32.5359 18.5892 33.2001 17.1235 33.9029 15.9444C34.3012 15.2762 34.7002 14.7194 35 14.3295C35.2997 14.7194 35.6987 15.2762 36.097 15.9444Z" fill="white"/>
<path d="M33.9029 25.5529C33.2001 24.3737 32.5359 22.9081 32.3718 21.4288H37.6281C37.464 22.9081 36.7999 24.3737 36.097 25.5529C35.6987 26.2211 35.2997 26.7778 35 27.1678C34.7002 26.7778 34.3012 26.2211 33.9029 25.5529Z" fill="white"/>
</svg>
